<?xml version="1.0" encoding="UTF-8" standalone="no"?>
<svg
   height="20"
   viewBox="0 -960 680 800"
   width="17"
   fill="#533618"
   version="1.1"
   id="svg1"
   sodipodi:docname="content_copy_24dp_533618_FILL0_wght400_GRAD0_opsz24 (コピー).svg"
   inkscape:version="1.4 (e7c3feb100, 2024-10-09)"
   xmlns:inkscape="http://www.inkscape.org/namespaces/inkscape"
   xmlns:sodipodi="http://sodipodi.sourceforge.net/DTD/sodipodi-0.dtd"
   xmlns="http://www.w3.org/2000/svg"
   xmlns:svg="http://www.w3.org/2000/svg">
  <defs
     id="defs1" />
  <sodipodi:namedview
     id="namedview1"
     pagecolor="#505050"
     bordercolor="#eeeeee"
     borderopacity="1"
     inkscape:showpageshadow="0"
     inkscape:pageopacity="0"
     inkscape:pagecheckerboard="0"
     inkscape:deskcolor="#d1d1d1"
     inkscape:zoom="34.333333"
     inkscape:cx="9"
     inkscape:cy="9.9902913"
     inkscape:window-width="1920"
     inkscape:window-height="1011"
     inkscape:window-x="0"
     inkscape:window-y="32"
     inkscape:window-maximized="1"
     inkscape:current-layer="svg1" />
  <path
     d="m 240,-320 q -33,0 -56.5,-23.5 Q 160,-367 160,-400 v -480 q 0,-33 23.5,-56.5 Q 207,-960 240,-960 h 360 q 33,0 56.5,23.5 23.5,23.5 23.5,56.5 v 480 q 0,33 -23.5,56.5 Q 633,-320 600,-320 Z m 0,-80 H 600 V -880 H 240 Z M 80,-160 Q 47,-160 23.5,-183.5 0,-207 0,-240 v -560 h 80 v 560 h 440 v 80 z m 160,-240 v -480 z"
     id="path1" />
</svg>
