<svg xmlns="http://www.w3.org/2000/svg" viewBox="0 0 1024 1024"><path fill="#1b1e1f" d="M0 0h1024v1024H0V0z"/><path fill="#fff" d="M672.95 498.2c-30.58-30.58-80.16-30.58-110.74 0s-30.58 80.16 0 110.74c39.78 39.78 39.78 107 0 146.79s-107 39.78-146.79 0c-39.78-39.78-39.79-107 0-146.79l206.03-206.03c30.58-30.58 30.58-80.16 0-110.74s-80.16-30.58-110.74 0L304.68 498.2c-48.95 48.96-75.91 114.35-75.91 184.14s26.97 135.19 75.92 184.14h-.01c48.96 48.96 114.35 75.92 184.14 75.92s135.19-26.97 184.14-75.92c48.95-48.96 75.91-114.35 75.91-184.14S721.9 547.15 672.95 498.2z"/><path fill="#96d04a" d="M766.96 146.67c-37.69-37.69-98.8-37.69-136.49 0-37.69 37.69-37.69 98.8 0 136.49 37.69 37.69 98.8 37.69 136.49 0s37.69-98.8 0-136.49z"/></svg>